<mxfile host="app.diagrams.net" agent="Mozilla/5.0 (Macintosh; Intel Mac OS X 10_15_7) AppleWebKit/537.36 (KHTML, like Gecko) Chrome/130.0.0.0 Safari/537.36" version="24.8.3">
  <diagram name="Page-1" id="4FzGifjTpXF_uIJVOHuU">
    <mxGraphModel dx="2105" dy="920" grid="0" gridSize="10" guides="1" tooltips="1" connect="1" arrows="1" fold="1" page="1" pageScale="1" pageWidth="850" pageHeight="1100" math="0" shadow="0">
      <root>
        <mxCell id="0" />
        <mxCell id="1" parent="0" />
        <mxCell id="lW-2B9IXrYY5qbSLMaCl-3" value="" style="edgeStyle=orthogonalEdgeStyle;rounded=0;orthogonalLoop=1;jettySize=auto;html=1;" parent="1" source="lW-2B9IXrYY5qbSLMaCl-1" target="lW-2B9IXrYY5qbSLMaCl-2" edge="1">
          <mxGeometry relative="1" as="geometry" />
        </mxCell>
        <mxCell id="lW-2B9IXrYY5qbSLMaCl-1" value="START" style="rounded=1;whiteSpace=wrap;html=1;" parent="1" vertex="1">
          <mxGeometry x="365" y="30" width="120" height="60" as="geometry" />
        </mxCell>
        <mxCell id="lW-2B9IXrYY5qbSLMaCl-5" value="" style="edgeStyle=orthogonalEdgeStyle;rounded=0;orthogonalLoop=1;jettySize=auto;html=1;" parent="1" source="lW-2B9IXrYY5qbSLMaCl-2" target="lW-2B9IXrYY5qbSLMaCl-4" edge="1">
          <mxGeometry relative="1" as="geometry" />
        </mxCell>
        <mxCell id="lW-2B9IXrYY5qbSLMaCl-2" value="Generate random word" style="whiteSpace=wrap;html=1;rounded=1;" parent="1" vertex="1">
          <mxGeometry x="365" y="140" width="120" height="60" as="geometry" />
        </mxCell>
        <mxCell id="lW-2B9IXrYY5qbSLMaCl-7" value="" style="edgeStyle=orthogonalEdgeStyle;rounded=0;orthogonalLoop=1;jettySize=auto;html=1;" parent="1" source="lW-2B9IXrYY5qbSLMaCl-4" target="lW-2B9IXrYY5qbSLMaCl-6" edge="1">
          <mxGeometry relative="1" as="geometry" />
        </mxCell>
        <mxCell id="lW-2B9IXrYY5qbSLMaCl-4" value="Generate as many blank spaces as letters in the word" style="whiteSpace=wrap;html=1;rounded=1;" parent="1" vertex="1">
          <mxGeometry x="365" y="240" width="120" height="60" as="geometry" />
        </mxCell>
        <mxCell id="lW-2B9IXrYY5qbSLMaCl-9" value="" style="edgeStyle=orthogonalEdgeStyle;rounded=0;orthogonalLoop=1;jettySize=auto;html=1;" parent="1" source="lW-2B9IXrYY5qbSLMaCl-6" target="lW-2B9IXrYY5qbSLMaCl-8" edge="1">
          <mxGeometry relative="1" as="geometry" />
        </mxCell>
        <mxCell id="lW-2B9IXrYY5qbSLMaCl-6" value="Ask the user to guess a letter" style="whiteSpace=wrap;html=1;rounded=1;" parent="1" vertex="1">
          <mxGeometry x="365" y="340" width="120" height="60" as="geometry" />
        </mxCell>
        <mxCell id="lW-2B9IXrYY5qbSLMaCl-11" value="Yes" style="edgeStyle=orthogonalEdgeStyle;rounded=0;orthogonalLoop=1;jettySize=auto;html=1;exitX=0;exitY=0.5;exitDx=0;exitDy=0;entryX=0.5;entryY=0;entryDx=0;entryDy=0;" parent="1" source="lW-2B9IXrYY5qbSLMaCl-8" target="lW-2B9IXrYY5qbSLMaCl-10" edge="1">
          <mxGeometry x="0.1261" y="-20" relative="1" as="geometry">
            <mxPoint x="343" y="495" as="sourcePoint" />
            <mxPoint x="280" y="570" as="targetPoint" />
            <Array as="points">
              <mxPoint x="290" y="495" />
            </Array>
            <mxPoint as="offset" />
          </mxGeometry>
        </mxCell>
        <mxCell id="lW-2B9IXrYY5qbSLMaCl-16" value="No" style="edgeStyle=orthogonalEdgeStyle;rounded=0;orthogonalLoop=1;jettySize=auto;html=1;" parent="1" source="lW-2B9IXrYY5qbSLMaCl-8" target="lW-2B9IXrYY5qbSLMaCl-15" edge="1">
          <mxGeometry x="0.1243" y="20" relative="1" as="geometry">
            <mxPoint as="offset" />
          </mxGeometry>
        </mxCell>
        <mxCell id="lW-2B9IXrYY5qbSLMaCl-8" value="Is the guessed letter in the word?" style="rhombus;whiteSpace=wrap;html=1;rounded=1;" parent="1" vertex="1">
          <mxGeometry x="353" y="450" width="145" height="90" as="geometry" />
        </mxCell>
        <mxCell id="lW-2B9IXrYY5qbSLMaCl-13" value="" style="edgeStyle=orthogonalEdgeStyle;rounded=0;orthogonalLoop=1;jettySize=auto;html=1;" parent="1" source="lW-2B9IXrYY5qbSLMaCl-10" target="lW-2B9IXrYY5qbSLMaCl-12" edge="1">
          <mxGeometry relative="1" as="geometry" />
        </mxCell>
        <mxCell id="lW-2B9IXrYY5qbSLMaCl-10" value="Replace the blank with the letter" style="whiteSpace=wrap;html=1;rounded=1;" parent="1" vertex="1">
          <mxGeometry x="230" y="570" width="120" height="60" as="geometry" />
        </mxCell>
        <mxCell id="lW-2B9IXrYY5qbSLMaCl-14" value="No" style="edgeStyle=orthogonalEdgeStyle;rounded=0;orthogonalLoop=1;jettySize=auto;html=1;entryX=0;entryY=0.5;entryDx=0;entryDy=0;exitX=0.046;exitY=0.509;exitDx=0;exitDy=0;exitPerimeter=0;" parent="1" source="lW-2B9IXrYY5qbSLMaCl-12" target="lW-2B9IXrYY5qbSLMaCl-6" edge="1">
          <mxGeometry x="-0.8787" y="20" relative="1" as="geometry">
            <Array as="points">
              <mxPoint x="220" y="711" />
              <mxPoint x="180" y="710" />
              <mxPoint x="180" y="370" />
            </Array>
            <mxPoint as="offset" />
          </mxGeometry>
        </mxCell>
        <mxCell id="lW-2B9IXrYY5qbSLMaCl-21" value="" style="edgeStyle=orthogonalEdgeStyle;rounded=0;orthogonalLoop=1;jettySize=auto;html=1;exitX=0.5;exitY=0.96;exitDx=0;exitDy=0;exitPerimeter=0;" parent="1" source="lW-2B9IXrYY5qbSLMaCl-12" target="lW-2B9IXrYY5qbSLMaCl-20" edge="1">
          <mxGeometry relative="1" as="geometry" />
        </mxCell>
        <mxCell id="pRq4eDbDreTQfSSRlEx2-2" value="Yes" style="edgeLabel;html=1;align=center;verticalAlign=middle;resizable=0;points=[];" vertex="1" connectable="0" parent="lW-2B9IXrYY5qbSLMaCl-21">
          <mxGeometry x="-0.7591" relative="1" as="geometry">
            <mxPoint x="16" y="-17" as="offset" />
          </mxGeometry>
        </mxCell>
        <mxCell id="lW-2B9IXrYY5qbSLMaCl-12" value="Are all the blanks filled?" style="rhombus;whiteSpace=wrap;html=1;rounded=1;" parent="1" vertex="1">
          <mxGeometry x="210" y="670" width="160" height="80" as="geometry" />
        </mxCell>
        <mxCell id="lW-2B9IXrYY5qbSLMaCl-18" value="" style="edgeStyle=orthogonalEdgeStyle;rounded=0;orthogonalLoop=1;jettySize=auto;html=1;" parent="1" source="lW-2B9IXrYY5qbSLMaCl-15" target="lW-2B9IXrYY5qbSLMaCl-17" edge="1">
          <mxGeometry relative="1" as="geometry" />
        </mxCell>
        <mxCell id="lW-2B9IXrYY5qbSLMaCl-15" value="Lose a life" style="whiteSpace=wrap;html=1;rounded=1;" parent="1" vertex="1">
          <mxGeometry x="500" y="570" width="120" height="60" as="geometry" />
        </mxCell>
        <mxCell id="lW-2B9IXrYY5qbSLMaCl-19" value="No" style="edgeStyle=orthogonalEdgeStyle;rounded=0;orthogonalLoop=1;jettySize=auto;html=1;entryX=1;entryY=0.5;entryDx=0;entryDy=0;exitX=0.962;exitY=0.502;exitDx=0;exitDy=0;exitPerimeter=0;" parent="1" source="lW-2B9IXrYY5qbSLMaCl-17" target="lW-2B9IXrYY5qbSLMaCl-6" edge="1">
          <mxGeometry x="-0.841" y="-20" relative="1" as="geometry">
            <Array as="points">
              <mxPoint x="670" y="710" />
              <mxPoint x="670" y="370" />
            </Array>
            <mxPoint x="-20" y="20" as="offset" />
          </mxGeometry>
        </mxCell>
        <mxCell id="lW-2B9IXrYY5qbSLMaCl-17" value="Have they run out of lives?" style="rhombus;whiteSpace=wrap;html=1;rounded=1;" parent="1" vertex="1">
          <mxGeometry x="490" y="670" width="140" height="80" as="geometry" />
        </mxCell>
        <mxCell id="lW-2B9IXrYY5qbSLMaCl-20" value="GAME OVER" style="whiteSpace=wrap;html=1;rounded=1;" parent="1" vertex="1">
          <mxGeometry x="365.5" y="880" width="120" height="60" as="geometry" />
        </mxCell>
        <mxCell id="lW-2B9IXrYY5qbSLMaCl-28" value="" style="endArrow=none;html=1;rounded=0;entryX=0.504;entryY=0.963;entryDx=0;entryDy=0;entryPerimeter=0;" parent="1" edge="1">
          <mxGeometry width="50" height="50" relative="1" as="geometry">
            <mxPoint x="560" y="815" as="sourcePoint" />
            <mxPoint x="560.5600000000002" y="748.04" as="targetPoint" />
          </mxGeometry>
        </mxCell>
        <mxCell id="pRq4eDbDreTQfSSRlEx2-1" value="Yes" style="edgeLabel;html=1;align=center;verticalAlign=middle;resizable=0;points=[];" vertex="1" connectable="0" parent="lW-2B9IXrYY5qbSLMaCl-28">
          <mxGeometry x="0.3689" relative="1" as="geometry">
            <mxPoint x="-17" y="-10" as="offset" />
          </mxGeometry>
        </mxCell>
        <mxCell id="lW-2B9IXrYY5qbSLMaCl-29" value="" style="endArrow=none;html=1;rounded=0;" parent="1" edge="1">
          <mxGeometry width="50" height="50" relative="1" as="geometry">
            <mxPoint x="419" y="815" as="sourcePoint" />
            <mxPoint x="560" y="815" as="targetPoint" />
          </mxGeometry>
        </mxCell>
      </root>
    </mxGraphModel>
  </diagram>
</mxfile>
